<svg id="Vrstva_1" data-name="Vrstva 1" xmlns="http://www.w3.org/2000/svg" viewBox="0 0 180 102"><defs><style>.cls-1,.cls-7,.cls-8{fill:#aeaeae;}.cls-2,.cls-3{fill:#03558c;}.cls-3{font-size:39px;font-family:Sansation-Bold, Sansation Bold;font-weight:700;letter-spacing:-0.06em;}.cls-4,.cls-8{letter-spacing:-0.01em;}.cls-5{letter-spacing:0em;}.cls-6{letter-spacing:-0.02em;}.cls-7{letter-spacing:-0.02em;}</style></defs><path class="cls-1" d="M75.22,56.37c15.84,4.45,28.24,1.93,36-4.61,15-12.67-9-27.94-15.4-11-2.07,5.46-6.27,14-20.58,15.65Z"/><path class="cls-2" d="M79,5.26C65.55,14.83,59.76,26.08,60,36.19c.51,19.62,27.42,10.51,18.26-5.08-3-5-7-13.64.68-25.85Z"/><path class="cls-2" d="M120,34.08c-2.8-16.22-10.4-26.33-19.63-30.5C82.47-4.49,79,23.7,97,22.23c5.83-.48,15.32-.36,23,11.85Z"/><text class="cls-3" transform="translate(-1.28 92.09) scale(1.1 1)">F<tspan class="cls-4" x="16.65" y="0">a</tspan><tspan class="cls-5" x="34.87" y="0">c</tspan><tspan class="cls-6" x="52.26" y="0">tur</tspan><tspan class="cls-7" x="97.65" y="0">A</tspan><tspan class="cls-8" x="120.82" y="0">pp</tspan></text></svg>