<?xml version="1.0" encoding="utf-8"?>
<!-- Generator: Adobe Illustrator 24.2.0, SVG Export Plug-In . SVG Version: 6.00 Build 0)  -->
<svg version="1.1" id="Capa_1" xmlns="http://www.w3.org/2000/svg" xmlns:xlink="http://www.w3.org/1999/xlink" x="0px" y="0px"
	 viewBox="0 0 297 297" style="enable-background:new 0 0 297 297;" xml:space="preserve">
<style type="text/css">
	.st0{fill:#CBD1F5;}
</style>
<g>
	<path class="st0" d="M296.6,267.3l-30.8-107.9c-1.2-4.3-5.1-7.2-9.6-7.2h-70.8c14.2-19.2,28-44.4,28-70.2c0-35.8-29.1-65-65-65
		c-35.8,0-65,29.2-65,65c0,25.7,13.8,51,28,70.2H40.8c-4.5,0-8.4,3-9.6,7.2L0.4,267.3c-0.9,3-0.3,6.2,1.6,8.7s4.8,4,8,4h277
		c3.1,0,6.1-1.5,8-4S297.5,270.3,296.6,267.3z M148.5,36.9c24.8,0,45,20.2,45,45.1c0,33.3-31.1,68.5-45,82.5
		c-13.9-14-45-49.2-45-82.5C103.5,57.2,123.7,36.9,148.5,36.9z M128.1,172.1c7.5,8.1,13.1,13.1,13.8,13.7c1.9,1.7,4.2,2.5,6.6,2.5
		c2.4,0,4.7-0.8,6.6-2.5c0.7-0.6,6.3-5.6,13.8-13.7h79.8l2.8,9.7L213,213.9L45,183.4l3.2-11.3L128.1,172.1L128.1,172.1z M76.2,260.1
		v-50.7L193,230.6l-35.4,29.5H76.2z M39.6,202.7l16.8,3v54.4H23.2L39.6,202.7z M188.7,260.1l68.8-57.3l16.3,57.3H188.7z"/>
	<path class="st0" d="M175.3,82c0-14.9-12-27-26.8-27s-26.8,12.1-26.8,27s12,27,26.8,27S175.3,96.9,175.3,82z M141.6,82
		c0-3.9,3.1-7,6.9-7c3.8,0,6.9,3.1,6.9,7s-3.1,7-6.9,7C144.7,89,141.6,85.9,141.6,82z"/>
</g>
</svg>
