<?xml version="1.0" encoding="utf-8"?>
<!-- Generator: Adobe Illustrator 24.2.0, SVG Export Plug-In . SVG Version: 6.00 Build 0)  -->
<svg version="1.1" id="Vrstva_1" xmlns="http://www.w3.org/2000/svg" xmlns:xlink="http://www.w3.org/1999/xlink" x="0px" y="0px"
	 viewBox="0 0 180 90.9" style="enable-background:new 0 0 180 90.9;" xml:space="preserve">
<style type="text/css">
	.st0{fill:#AEAEAE;}
	.st1{fill:#03558C;}
</style>
<g>
	<path class="st0" d="M77.2,50.7c13.8,3.9,24.5,1.7,31.3-4c13-11-7.8-24.3-13.4-9.6C93.3,41.9,89.6,49.3,77.2,50.7L77.2,50.7z"/>
	<path class="st1" d="M80.4,6.3c-11.7,8.3-16.7,18.1-16.5,26.9c0.4,17,23.8,9.1,15.9-4.4C77.2,24.4,73.7,16.9,80.4,6.3L80.4,6.3z"/>
	<path class="st1" d="M116.1,31.4C113.6,17.3,107,8.5,99,4.9c-15.6-7-18.6,17.5-2.9,16.2C101.2,20.6,109.4,20.7,116.1,31.4z"/>
</g>
<g>
	<path class="st1" d="M21,71.4h-7.7v4.9h6.4c0.6,0,1,0.1,1.3,0.4c0.3,0.3,0.4,0.6,0.4,1.1s-0.1,0.8-0.4,1.1s-0.7,0.4-1.3,0.4h-6.4
		v6.4c0,0.8-0.2,1.4-0.5,1.8c-0.4,0.4-0.8,0.6-1.4,0.6c-0.6,0-1.1-0.2-1.4-0.6s-0.5-1-0.5-1.8V70.8c0-0.6,0.1-1,0.3-1.4
		c0.2-0.4,0.4-0.6,0.8-0.8c0.4-0.2,0.8-0.2,1.4-0.2H21c0.6,0,1.1,0.1,1.4,0.4c0.3,0.3,0.5,0.6,0.5,1.1c0,0.5-0.2,0.8-0.5,1.1
		C22.1,71.3,21.7,71.4,21,71.4z"/>
	<path class="st1" d="M36.1,85.6l-0.9-2.4h-7.9l-0.9,2.5c-0.4,1-0.7,1.6-0.9,2c-0.3,0.3-0.7,0.5-1.3,0.5c-0.5,0-0.9-0.2-1.3-0.5
		s-0.6-0.8-0.6-1.2c0-0.3,0-0.5,0.1-0.8s0.2-0.7,0.4-1.2l4.9-12.6c0.1-0.4,0.3-0.8,0.5-1.3c0.2-0.5,0.4-0.9,0.6-1.3
		c0.2-0.3,0.5-0.6,0.9-0.8c0.4-0.2,0.8-0.3,1.4-0.3c0.5,0,1,0.1,1.4,0.3c0.4,0.2,0.7,0.5,0.9,0.8c0.2,0.3,0.4,0.7,0.6,1
		c0.2,0.4,0.3,0.9,0.6,1.5l5,12.5c0.4,0.9,0.6,1.6,0.6,2.1c0,0.4-0.2,0.9-0.6,1.2c-0.4,0.4-0.8,0.6-1.4,0.6c-0.3,0-0.6-0.1-0.8-0.2
		c-0.2-0.1-0.4-0.3-0.6-0.4c-0.1-0.2-0.3-0.5-0.5-0.9C36.4,86.2,36.2,85.9,36.1,85.6z M28.4,80.2h5.8l-2.9-8L28.4,80.2z"/>
	<path class="st1" d="M59,81.6c0,0.6-0.2,1.3-0.5,2c-0.3,0.7-0.8,1.4-1.4,2.1c-0.7,0.7-1.5,1.3-2.5,1.7s-2.2,0.6-3.5,0.6
		c-1,0-1.9-0.1-2.8-0.3c-0.8-0.2-1.6-0.5-2.3-0.9c-0.7-0.4-1.3-0.9-1.9-1.6c-0.5-0.6-0.9-1.3-1.3-2c-0.4-0.8-0.6-1.6-0.8-2.4
		c-0.2-0.9-0.3-1.8-0.3-2.7c0-1.6,0.2-2.9,0.7-4.2s1.1-2.3,1.9-3.2c0.8-0.9,1.8-1.5,3-2s2.3-0.7,3.6-0.7c1.6,0,3,0.3,4.2,0.9
		s2.2,1.4,2.8,2.3c0.7,0.9,1,1.8,1,2.6c0,0.4-0.2,0.8-0.5,1.2c-0.3,0.3-0.7,0.5-1.1,0.5c-0.5,0-0.9-0.1-1.1-0.4
		c-0.3-0.2-0.5-0.6-0.8-1.2c-0.5-1-1.1-1.7-1.8-2.1c-0.7-0.5-1.5-0.7-2.6-0.7c-1.6,0-2.9,0.6-3.8,1.8s-1.4,3-1.4,5.2
		c0,1.5,0.2,2.8,0.6,3.8c0.4,1,1,1.7,1.8,2.2s1.7,0.7,2.7,0.7c1.1,0,2.1-0.3,2.9-0.8c0.8-0.6,1.4-1.4,1.8-2.5
		c0.2-0.5,0.4-0.9,0.6-1.2c0.2-0.3,0.6-0.5,1.2-0.5c0.5,0,0.9,0.2,1.2,0.5S59,81.2,59,81.6z"/>
	<path class="st1" d="M75,71.6h-4.3v14c0,0.8-0.2,1.4-0.5,1.8c-0.4,0.4-0.8,0.6-1.4,0.6c-0.6,0-1.1-0.2-1.4-0.6s-0.5-1-0.5-1.8v-14
		h-4.3c-0.7,0-1.2-0.1-1.5-0.4c-0.3-0.3-0.5-0.7-0.5-1.2c0-0.5,0.2-0.9,0.5-1.2c0.3-0.3,0.8-0.4,1.5-0.4H75c0.7,0,1.2,0.1,1.5,0.4
		c0.3,0.3,0.5,0.7,0.5,1.2s-0.2,0.9-0.5,1.2C76.2,71.5,75.7,71.6,75,71.6z"/>
	<path class="st1" d="M79.4,79.8v-9.3c0-0.8,0.2-1.4,0.5-1.8c0.4-0.4,0.8-0.6,1.4-0.6c0.6,0,1.1,0.2,1.4,0.6c0.4,0.4,0.5,1,0.5,1.8
		V80c0,1.1,0.1,2,0.4,2.7c0.2,0.7,0.7,1.3,1.3,1.7c0.6,0.4,1.5,0.6,2.6,0.6c1.5,0,2.6-0.4,3.2-1.2c0.6-0.8,0.9-2,0.9-3.7v-9.6
		c0-0.8,0.2-1.4,0.5-1.8c0.4-0.4,0.8-0.6,1.4-0.6c0.6,0,1.1,0.2,1.4,0.6c0.4,0.4,0.5,1,0.5,1.8v9.3c0,1.5-0.1,2.8-0.4,3.8
		c-0.3,1-0.8,1.9-1.7,2.7c-0.7,0.7-1.5,1.1-2.5,1.4c-0.9,0.3-2,0.4-3.3,0.4c-1.5,0-2.8-0.2-3.8-0.5c-1.1-0.3-1.9-0.8-2.6-1.5
		c-0.7-0.7-1.2-1.5-1.5-2.6C79.6,82.5,79.4,81.2,79.4,79.8z"/>
	<path class="st1" d="M105.1,79.5h-1.4v6.2c0,0.8-0.2,1.4-0.5,1.8c-0.4,0.4-0.8,0.6-1.4,0.6c-0.6,0-1.1-0.2-1.4-0.6
		c-0.3-0.4-0.5-1-0.5-1.8V70.8c0-0.8,0.2-1.5,0.6-1.8c0.4-0.4,1-0.6,1.8-0.6h6.4c0.9,0,1.6,0,2.3,0.1c0.6,0.1,1.2,0.2,1.7,0.5
		c0.6,0.3,1.1,0.6,1.6,1.1s0.8,1,1.1,1.7c0.2,0.6,0.4,1.3,0.4,2c0,1.4-0.4,2.6-1.2,3.5c-0.8,0.9-2,1.5-3.7,1.8
		c0.7,0.4,1.4,0.9,2,1.6s1.2,1.5,1.7,2.3c0.5,0.8,0.9,1.5,1.2,2.2c0.3,0.7,0.4,1.1,0.4,1.4c0,0.3-0.1,0.5-0.2,0.8
		c-0.2,0.3-0.4,0.4-0.7,0.6c-0.3,0.1-0.6,0.2-1,0.2c-0.4,0-0.8-0.1-1.1-0.3c-0.3-0.2-0.6-0.5-0.8-0.8c-0.2-0.3-0.5-0.8-0.9-1.4
		l-1.6-2.6c-0.6-1-1.1-1.7-1.5-2.2c-0.4-0.5-0.9-0.8-1.4-1S105.8,79.5,105.1,79.5z M107.4,71.4h-3.6v5.3h3.5c0.9,0,1.7-0.1,2.4-0.2
		c0.6-0.2,1.1-0.4,1.5-0.8c0.3-0.4,0.5-0.9,0.5-1.6c0-0.5-0.1-1-0.4-1.4c-0.3-0.4-0.7-0.7-1.1-0.9C109.6,71.5,108.7,71.4,107.4,71.4
		z"/>
	<path class="st0" d="M131.7,85.6l-0.9-2.4h-7.9l-0.9,2.5c-0.4,1-0.7,1.6-0.9,2c-0.3,0.3-0.7,0.5-1.3,0.5c-0.5,0-0.9-0.2-1.3-0.5
		s-0.6-0.8-0.6-1.2c0-0.3,0-0.5,0.1-0.8c0.1-0.3,0.2-0.7,0.4-1.2l4.9-12.6c0.1-0.4,0.3-0.8,0.5-1.3c0.2-0.5,0.4-0.9,0.6-1.3
		c0.2-0.3,0.5-0.6,0.9-0.8c0.4-0.2,0.8-0.3,1.4-0.3c0.5,0,1,0.1,1.4,0.3c0.4,0.2,0.7,0.5,0.9,0.8c0.2,0.3,0.4,0.7,0.6,1
		c0.2,0.4,0.3,0.9,0.6,1.5l5,12.5c0.4,0.9,0.6,1.6,0.6,2.1c0,0.4-0.2,0.9-0.6,1.2c-0.4,0.4-0.8,0.6-1.4,0.6c-0.3,0-0.6-0.1-0.8-0.2
		c-0.2-0.1-0.4-0.3-0.6-0.4c-0.1-0.2-0.3-0.5-0.5-0.9C131.9,86.2,131.8,85.9,131.7,85.6z M123.9,80.2h5.8l-2.9-8L123.9,80.2z"/>
	<path class="st0" d="M146.2,80.2h-3.6v5.5c0,0.8-0.2,1.4-0.6,1.8c-0.4,0.4-0.8,0.6-1.4,0.6c-0.6,0-1.1-0.2-1.4-0.6
		c-0.4-0.4-0.5-1-0.5-1.8V70.8c0-0.9,0.2-1.5,0.6-1.8c0.4-0.4,1-0.6,1.9-0.6h5c1.5,0,2.6,0.1,3.4,0.3c0.8,0.2,1.5,0.6,2,1.1
		c0.6,0.5,1,1.1,1.3,1.9s0.4,1.6,0.4,2.5c0,2-0.6,3.5-1.8,4.5C150.4,79.7,148.6,80.2,146.2,80.2z M145.3,71.4h-2.6v5.9h2.6
		c0.9,0,1.7-0.1,2.3-0.3c0.6-0.2,1.1-0.5,1.4-0.9c0.3-0.4,0.5-1,0.5-1.7c0-0.9-0.3-1.5-0.8-2.1C148.2,71.6,147,71.4,145.3,71.4z"/>
	<path class="st0" d="M164.2,80.2h-3.6v5.5c0,0.8-0.2,1.4-0.6,1.8c-0.4,0.4-0.8,0.6-1.4,0.6c-0.6,0-1.1-0.2-1.4-0.6
		c-0.4-0.4-0.5-1-0.5-1.8V70.8c0-0.9,0.2-1.5,0.6-1.8c0.4-0.4,1-0.6,1.9-0.6h5c1.5,0,2.6,0.1,3.4,0.3c0.8,0.2,1.5,0.6,2,1.1
		c0.6,0.5,1,1.1,1.3,1.9s0.4,1.6,0.4,2.5c0,2-0.6,3.5-1.8,4.5C168.4,79.7,166.6,80.2,164.2,80.2z M163.3,71.4h-2.6v5.9h2.6
		c0.9,0,1.7-0.1,2.3-0.3c0.6-0.2,1.1-0.5,1.4-0.9c0.3-0.4,0.5-1,0.5-1.7c0-0.9-0.3-1.5-0.8-2.1C166.2,71.6,165,71.4,163.3,71.4z"/>
</g>
</svg>
