<?xml version="1.0" encoding="utf-8"?>
<!-- Generator: Adobe Illustrator 24.2.0, SVG Export Plug-In . SVG Version: 6.00 Build 0)  -->
<svg version="1.1" xmlns="http://www.w3.org/2000/svg" xmlns:xlink="http://www.w3.org/1999/xlink" x="0px" y="0px"
	 viewBox="0 0 86.3 28" style="enable-background:new 0 0 86.3 28;" xml:space="preserve">
<style type="text/css">
	.st0{fill:#0A3D56;}
	.st1{fill-rule:evenodd;clip-rule:evenodd;fill:#1384C8;}
	.st2{enable-background:new    ;}
	.st3{fill:#FFFFFF;}
</style>
<g id="Capa_1">
	<rect class="st0" width="86.3" height="28"/>
	<path class="st1" d="M28.9,17.5c0.1-0.3,0.2-0.6,0.3-0.9c0.6-1.7,1.1-3.4,1.7-5.2c0.2-0.7,0.4-1.3,0.9-1.9c0.7-0.9,1.6-1.4,2.6-1.5
		c0.4-0.1,0.9-0.1,1.3-0.1c1.3,0,2.6,0,3.8,0c0.1,0,0.1,0,0.2,0c0,0.1,0,0.1-0.1,0.2c-0.5,0.8-0.9,1.7-1.4,2.5
		c-0.8,1.5-1.7,2.9-2.6,4.4c-0.6,0.9-1.2,1.8-1.9,2.7c-0.5,0.6-1,1.2-1.7,1.6c-0.5,0.3-1,0.5-1.5,0.5c-2,0-4,0-6,0
		c-0.6,0-1.1-0.2-1.5-0.6c-0.6-0.6-1-1.3-1.3-2.1c-0.6-1.4-0.9-2.9-1.2-4.4c-0.2-0.7-0.4-1.4-0.5-2.1c0,0,0-0.1-0.1-0.1l-0.1,0.1
		c-0.8,0.8-1.5,1.6-2.1,2.5c-0.2,0.2-0.2,0.6-0.3,0.9c-0.3,1.1-0.7,2.2-1,3.3c-0.4,1-1,1.8-2,2.3c-0.6,0.3-1.2,0.4-1.9,0.4
		c-1,0-1.9,0-2.9,0c-0.2,0-0.2,0-0.2-0.2c0.4-1.5,0.9-3,1.6-4.5c0.7-1.5,1.5-2.9,2.5-4.2c0.7-0.9,1.4-1.7,2.4-2.3
		c0.5-0.3,1-0.6,1.6-0.6c0.1,0,0.2,0,0.3,0c2.1,0,4.1,0,6.2,0c1.1,0,1.9,0.4,2.5,1.3c0.4,0.6,0.6,1.2,0.9,1.8c0.5,1.3,0.7,2.6,1,3.9
		c0.2,0.7,0.4,1.5,0.6,2.2C28.8,17.4,28.9,17.4,28.9,17.5L28.9,17.5L28.9,17.5z"/>
</g>
<g id="Modo_de_aislamiento">
	<g text-rendering="geometricPrecision">
		<g class="st2">
			<path class="st3" d="M48.2,18.7h-2v-2.1h2V18.7z"/>
			<path class="st3" d="M57.5,18.7h-2l-3.4-5.5v5.5h-1.9v-8h2.5l2.9,4.6v-4.6h1.9V18.7z"/>
			<path class="st3" d="M65.4,18.7h-5.8v-8h5.8v1.5h-3.7v1.4h3.5v1.5h-3.5v2h3.7V18.7z"/>
			<path class="st3" d="M73.5,12.2H71v6.5H69v-6.5h-2.5v-1.5h7.1V12.2z"/>
		</g>
	</g>
</g>
</svg>
