<?xml version="1.0" encoding="utf-8"?>
<!-- Generator: Adobe Illustrator 24.2.0, SVG Export Plug-In . SVG Version: 6.00 Build 0)  -->
<svg version="1.1" id="Logo" xmlns="http://www.w3.org/2000/svg" xmlns:xlink="http://www.w3.org/1999/xlink" x="0px" y="0px"
	 viewBox="0 0 205 32" style="enable-background:new 0 0 205 32;" xml:space="preserve">
<style type="text/css">
	.st0{fill:#03558C;}
	.st1{fill:#AEAEAE;}
	.st2{font-family:'Roboto-Medium';}
	.st3{font-size:30px;}
</style>
<g id="Capa_1">
	<g>
		<path class="st0" d="M1,30c0.1-0.6,0.4-1.1,0.6-1.6c3.8-8.5,7.6-17,11.3-25.5C13.3,2.2,13.7,2,14.4,2c3.4,0,6.8,0,10.2,0
			c0.4,0,0.6,0.1,0.8,0.5c0.6,1.5,1.3,3,2,4.6c-0.3,0-0.5,0-0.7,0c-3.2,0-6.3,0-9.5,0c-0.4,0-0.6,0.1-0.8,0.5
			c-1.1,2.5-2.2,5-3.3,7.5c-1.4,3.1-2.7,6.2-4.1,9.3c-0.2,0.5-0.1,0.6,0.4,0.6c0.8,0,1.7,0,2.5,0c0.4,0,0.6-0.1,0.8-0.5
			c1.1-2.5,2.2-5,3.3-7.5c0.2-0.4,0.4-0.5,0.8-0.5c1.7,0,3.4,0,5.1,0c0.4,0,0.6,0.1,0.7,0.5c0.6,1.4,1.2,2.7,1.8,4.1
			c0.2,0.4,0.2,0.6-0.3,0.6c-1.3,0-2.6,0-3.9,0c-0.4,0-0.7,0.1-0.8,0.5c-1.1,2.5-2.2,5-3.3,7.5c-0.1,0.3-0.2,0.5-0.6,0.5
			c-4.7,0-9.4,0-14.2,0C1.2,30,1.1,30,1,30z"/>
		<path class="st1" d="M23.4,10.3c1.8,0,3.6,0,5.3,0c0.4,0,0.4,0.3,0.5,0.5c2,4.4,3.9,8.8,5.9,13.1c0.8,1.8,1.6,3.7,2.5,5.6
			c0.1,0.2,0.2,0.3,0.2,0.6c-1.8,0-3.5,0-5.3,0c-0.4,0-0.4-0.3-0.5-0.5c-1.9-4.3-3.9-8.7-5.8-13C25.2,14.4,24.3,12.4,23.4,10.3z"/>
	</g>
</g>
<text transform="matrix(0.9617 0 0 1 43.8291 27.0352)"><tspan x="0" y="0" class="st0 st2 st3">FACTUR</tspan><tspan x="112.5" y="0" class="st1 st2 st3">APP</tspan></text>
</svg>
