<?xml version="1.0" encoding="utf-8"?>
<!-- Generator: Adobe Illustrator 24.2.0, SVG Export Plug-In . SVG Version: 6.00 Build 0)  -->
<svg version="1.1" xmlns="http://www.w3.org/2000/svg" xmlns:xlink="http://www.w3.org/1999/xlink" x="0px" y="0px"
	 viewBox="0 0 86.3 28" style="enable-background:new 0 0 86.3 28;" xml:space="preserve">
<style type="text/css">
	.st0{fill:#545556;}
</style>
<g id="Capa_1">
	<rect class="st0" width="86.3" height="28"/>
	<g>
		<path d="M19.9,24.4C19.8,24.4,19.8,24.4,19.9,24.4c-0.1,0-0.1,0-0.2,0c-0.9-0.1-1.8-0.2-2.7-0.4c-1-0.1-1.9-0.3-2.9-0.4
			c-0.9-0.1-1.7-0.2-2.6-0.3c-1-0.1-1.9-0.3-2.9-0.4c-0.4-0.1-0.7-0.1-1.1-0.2c0-5.8,0-11.6,0-17.4c4.1-0.5,8.2-1.1,12.2-1.6
			c0,0.6,0,1.2,0,1.7c0,0,0.1,0,0.1,0c2.1,0,4.1,0,6.2,0c0.8,0,1.4,0.6,1.4,1.4c0,4.8,0,9.6,0,14.5c0,0.1,0,0.2,0,0.3
			c-0.1,0.7-0.7,1.1-1.4,1.1c-2.1,0-4.1,0-6.2,0c0,0-0.1,0-0.1,0C19.9,23.2,19.9,23.8,19.9,24.4z M19.9,6.1c0,5.2,0,10.5,0,15.7
			c0,0,0.1,0,0.1,0c2.1,0,4.1,0,6.2,0c0.4,0,0.6-0.2,0.6-0.6c0-4.8,0-9.6,0-14.4c0-0.4-0.2-0.6-0.6-0.6c-2.1,0-4.1,0-6.2,0
			C20,6.1,19.9,6.1,19.9,6.1z M14.4,15.1C14.4,15.1,14.4,15.1,14.4,15.1C14.4,15,14.4,15,14.4,15.1c0.3-0.2,0.5-0.4,0.7-0.6
			c0.3-0.5,0.4-1.1,0.3-1.7c-0.2-0.9-0.8-1.5-1.6-1.6c-0.7-0.1-1.5,0.2-1.9,1c-0.3,0.5-0.3,1.1-0.2,1.6c0.1,0.8,0.7,1.4,1.5,1.6
			c0.3,0.1,0.6,0.2,0.8,0.3c0.1,0.1,0.2,0.1,0.4,0.2c0.3,0.1,0.6,0.2,0.9,0.3c0.1-0.2,0.2-0.5,0.3-0.7C15,15.3,14.7,15.2,14.4,15.1z
			 M10.9,11.4c-0.6-0.2-1.2-0.3-1.7,0c-0.7,0.4-0.9,1.4-0.1,1.9c0.2,0.1,0.4,0.2,0.6,0.3c0.1,0.1,0.3,0.1,0.4,0.2
			c0.1,0.1,0.2,0.2,0.2,0.3c0,0.2-0.1,0.4-0.4,0.4c-0.3,0-0.6,0-0.9-0.2c0,0-0.1,0-0.1-0.1c-0.1,0.2-0.1,0.4-0.1,0.7
			c0,0,0,0.1,0,0.1c0.1,0,0.2,0.1,0.3,0.1c0.5,0.1,0.9,0.2,1.4,0c0.4-0.2,0.7-0.5,0.7-0.9c0-0.4-0.1-0.8-0.5-1.1
			c-0.2-0.1-0.4-0.2-0.6-0.3c-0.1-0.1-0.3-0.1-0.4-0.2c-0.2-0.2-0.2-0.5,0.1-0.6c0.1,0,0.2-0.1,0.3-0.1c0.3,0,0.5,0.1,0.8,0.2
			C10.8,11.9,10.9,11.6,10.9,11.4z M18.8,14.6c-0.6,0-1.2,0-1.8,0c0-1.2,0-2.3,0-3.5c-0.3,0-0.7,0-1,0c0,1.4,0,2.8,0,4.3
			c0.9,0,1.8,0,2.7,0.1C18.8,15.2,18.8,14.9,18.8,14.6z"/>
		<path class="st0" d="M14.4,15.1c0.3,0.1,0.7,0.2,1,0.3c-0.1,0.2-0.2,0.5-0.3,0.7c-0.3-0.1-0.6-0.2-0.9-0.3c-0.1,0-0.2-0.1-0.4-0.2
			c-0.3-0.1-0.5-0.2-0.8-0.3c-0.8-0.1-1.4-0.8-1.5-1.6c-0.1-0.6,0-1.1,0.2-1.6c0.4-0.8,1.2-1.1,1.9-1c0.9,0.1,1.5,0.7,1.6,1.6
			c0.1,0.6,0,1.2-0.3,1.7C14.9,14.7,14.7,14.9,14.4,15.1C14.4,15,14.4,15,14.4,15.1C14.4,15.1,14.4,15.1,14.4,15.1z M12.4,13.2
			c0,0.3,0.1,0.7,0.2,1c0.4,0.6,1.1,0.6,1.5,0c0.1-0.2,0.2-0.5,0.2-0.8c0-0.4,0-0.8-0.2-1.1c-0.4-0.6-1.1-0.6-1.5,0
			C12.5,12.6,12.4,12.9,12.4,13.2z"/>
		<path class="st0" d="M10.9,11.4c-0.1,0.2-0.1,0.5-0.2,0.7c-0.3-0.1-0.5-0.2-0.8-0.2c-0.1,0-0.2,0-0.3,0.1
			c-0.3,0.1-0.3,0.4-0.1,0.6c0.1,0.1,0.3,0.2,0.4,0.2c0.2,0.1,0.4,0.2,0.6,0.3c0.4,0.2,0.5,0.6,0.5,1.1c0,0.5-0.3,0.8-0.7,0.9
			c-0.5,0.2-0.9,0.2-1.4,0c-0.1,0-0.2-0.1-0.3-0.1c0,0-0.1-0.1,0-0.1c0-0.2,0.1-0.4,0.1-0.7c0.1,0,0.1,0,0.1,0.1
			c0.3,0.1,0.6,0.2,0.9,0.2c0.3,0,0.4-0.2,0.4-0.4c0-0.1-0.1-0.2-0.2-0.3c-0.1-0.1-0.2-0.1-0.4-0.2c-0.2-0.1-0.4-0.2-0.6-0.3
			c-0.8-0.5-0.6-1.5,0.1-1.9C9.8,11.1,10.4,11.2,10.9,11.4z"/>
		<path class="st0" d="M18.8,14.6c0,0.3,0,0.6,0,0.8c-0.9,0-1.8,0-2.7-0.1c0-1.4,0-2.8,0-4.3c0.3,0,0.6,0,1,0c0,1.1,0,2.3,0,3.5
			C17.6,14.6,18.2,14.6,18.8,14.6z"/>
		<path d="M23,11.3c0.6,0,1.3,0.1,1.9,0.3c0.2,0.1,0.3,0.2,0.5,0.3c0.2,0.1,0.2,0.3,0.2,0.5c0,0,0,0,0,0.1c0,0.1,0.1,0.3,0.1,0.4
			c0,0.2,0,0.4,0,0.6c0,0.1,0,0.2-0.1,0.3c0,0,0,0.1,0,0.1c0,0.1,0.1,0.2,0.1,0.3c0,0.2,0,0.4,0,0.7c0,0,0,0.1,0,0.1
			c-0.1,0.2,0,0.4,0,0.6c0,0.3,0,0.6,0,0.8c0,0.2-0.1,0.4-0.3,0.5c-0.2,0.2-0.5,0.4-0.8,0.4c-0.7,0.2-1.4,0.3-2.2,0.2
			c-0.4,0-0.8-0.1-1.2-0.3c-0.2-0.1-0.4-0.2-0.6-0.4c-0.1-0.1-0.2-0.3-0.2-0.5c0-0.2,0-0.4,0-0.7c0-0.1,0.1-0.3,0.1-0.4
			c0-0.1-0.1-0.2-0.1-0.4c0-0.2,0-0.5,0-0.7c0-0.1,0-0.2,0.1-0.3c0,0,0-0.1,0-0.1c0-0.1-0.1-0.2-0.1-0.3c0-0.2,0-0.4,0-0.7
			c0,0,0-0.1,0-0.1c0-0.2,0.1-0.3,0.1-0.5c0-0.1,0.1-0.3,0.2-0.3c0.2-0.2,0.5-0.3,0.8-0.4C22,11.3,22.5,11.3,23,11.3z M20.6,15.6
			c0,0.2,0,0.4,0,0.6c0,0.2,0.1,0.3,0.2,0.4c0.2,0.2,0.4,0.3,0.7,0.3c0.9,0.3,1.9,0.3,2.8,0.1c0.3-0.1,0.6-0.2,0.8-0.4
			c0.1-0.1,0.2-0.2,0.2-0.3c0-0.2,0-0.5,0-0.7c0,0,0,0,0,0c-0.3,0.2-0.6,0.4-1,0.5c-0.6,0.2-1.3,0.2-1.9,0.1
			C21.8,16.1,21.2,16,20.6,15.6z M25.3,14.1c-0.2,0.2-0.5,0.3-0.8,0.4c-0.8,0.2-1.6,0.3-2.4,0.2c-0.5-0.1-1-0.2-1.4-0.6c0,0,0,0,0,0
			c0,0.2,0,0.3,0,0.5c0,0.3,0.1,0.5,0.3,0.6c0.1,0,0.2,0.1,0.2,0.1c0.4,0.2,0.8,0.3,1.2,0.3c0.7,0.1,1.3,0,1.9-0.1
			c0.3-0.1,0.5-0.2,0.8-0.4c0.1-0.1,0.2-0.2,0.2-0.4C25.3,14.6,25.3,14.4,25.3,14.1z M20.6,12.8c0,0.2,0,0.3,0,0.5
			c0,0.2,0.1,0.4,0.3,0.5c0.2,0.1,0.4,0.2,0.6,0.3c0.8,0.3,1.7,0.3,2.6,0.1c0.4-0.1,0.7-0.2,1-0.4c0.1-0.1,0.2-0.2,0.3-0.3
			c0-0.2,0-0.5,0-0.7c-0.2,0.1-0.4,0.2-0.6,0.3c-0.7,0.2-1.4,0.3-2.1,0.2C21.9,13.3,21.2,13.2,20.6,12.8z"/>
		<path d="M12.4,13.2c0-0.3,0.1-0.6,0.2-0.9c0.4-0.6,1.1-0.6,1.5,0c0.2,0.3,0.2,0.7,0.2,1.1c0,0.3-0.1,0.5-0.2,0.8
			c-0.4,0.6-1.1,0.6-1.5,0C12.5,13.9,12.4,13.6,12.4,13.2z"/>
	</g>
</g>
<g id="Modo_de_aislamiento">
	<g>
		<path d="M40.9,15.4c0,0.7-0.3,1.3-0.9,1.8c-0.6,0.5-1.5,0.7-2.6,0.7c-0.6,0-1.2-0.1-1.6-0.2c-0.5-0.1-0.9-0.2-1.3-0.4v-1.8h0.2
			c0.4,0.3,0.8,0.6,1.3,0.7c0.5,0.2,1,0.3,1.4,0.3c0.1,0,0.3,0,0.5,0c0.2,0,0.3-0.1,0.5-0.1c0.1-0.1,0.3-0.1,0.4-0.2
			c0.1-0.1,0.1-0.2,0.1-0.4c0-0.2-0.1-0.3-0.2-0.4c-0.1-0.1-0.3-0.2-0.6-0.3c-0.3-0.1-0.6-0.1-0.9-0.2c-0.3-0.1-0.6-0.1-0.9-0.2
			c-0.6-0.2-1.1-0.5-1.4-0.8c-0.3-0.4-0.4-0.8-0.4-1.3c0-0.7,0.3-1.3,0.9-1.7c0.6-0.4,1.4-0.7,2.4-0.7c0.5,0,1,0,1.5,0.1
			c0.5,0.1,0.9,0.2,1.3,0.4v1.7h-0.2c-0.3-0.2-0.7-0.4-1.1-0.6c-0.4-0.2-0.9-0.2-1.3-0.2c-0.2,0-0.3,0-0.5,0c-0.2,0-0.3,0.1-0.5,0.1
			c-0.1,0.1-0.2,0.1-0.3,0.2c-0.1,0.1-0.1,0.2-0.1,0.4c0,0.2,0.1,0.4,0.2,0.5s0.4,0.2,0.9,0.3c0.3,0.1,0.5,0.1,0.8,0.2
			c0.3,0.1,0.5,0.1,0.8,0.2c0.6,0.2,1,0.4,1.3,0.8C40.7,14.5,40.9,14.9,40.9,15.4z"/>
		<path d="M47.6,17.8h-5.4v-7.5h5.4v1.5h-3.5V13h3.3v1.5h-3.3v1.9h3.5V17.8z"/>
		<path d="M56.5,17.8h-2.4l-2-2.8h-0.9v2.8h-1.9v-7.5h3.2c0.4,0,0.8,0,1.1,0.1c0.3,0.1,0.6,0.2,0.9,0.3c0.3,0.2,0.5,0.4,0.7,0.7
			c0.2,0.3,0.2,0.6,0.2,1c0,0.6-0.1,1-0.4,1.4c-0.3,0.3-0.6,0.6-1.1,0.9L56.5,17.8z M53.5,12.5c0-0.2,0-0.3-0.1-0.5
			c-0.1-0.1-0.2-0.2-0.4-0.3c-0.1-0.1-0.3-0.1-0.5-0.1c-0.2,0-0.4,0-0.6,0h-0.7v2h0.6c0.3,0,0.6,0,0.8,0c0.2,0,0.4-0.1,0.5-0.2
			c0.1-0.1,0.2-0.2,0.3-0.3C53.4,12.9,53.5,12.8,53.5,12.5z"/>
		<path d="M64.1,10.2l-2.7,7.5h-2.2l-2.7-7.5h2l1.8,5.3l1.8-5.3H64.1z"/>
		<path d="M70.6,17.8h-5.4v-7.5h5.4v1.5h-3.5V13h3.3v1.5h-3.3v1.9h3.5V17.8z"/>
		<path d="M79.5,17.8h-2.4l-2-2.8h-0.9v2.8h-1.9v-7.5h3.2c0.4,0,0.8,0,1.1,0.1c0.3,0.1,0.6,0.2,0.9,0.3c0.3,0.2,0.5,0.4,0.7,0.7
			s0.2,0.6,0.2,1c0,0.6-0.1,1-0.4,1.4c-0.3,0.3-0.6,0.6-1.1,0.9L79.5,17.8z M76.5,12.5c0-0.2,0-0.3-0.1-0.5
			c-0.1-0.1-0.2-0.2-0.4-0.3c-0.1-0.1-0.3-0.1-0.5-0.1c-0.2,0-0.4,0-0.6,0h-0.7v2h0.6c0.3,0,0.6,0,0.8,0c0.2,0,0.4-0.1,0.5-0.2
			c0.1-0.1,0.2-0.2,0.3-0.3C76.5,12.9,76.5,12.8,76.5,12.5z"/>
	</g>
</g>
</svg>
