<?xml version="1.0" encoding="utf-8"?>
<!-- Generator: Adobe Illustrator 24.2.0, SVG Export Plug-In . SVG Version: 6.00 Build 0)  -->
<svg version="1.1" id="Vrstva_1" xmlns="http://www.w3.org/2000/svg" xmlns:xlink="http://www.w3.org/1999/xlink" x="0px" y="0px"
	 viewBox="0 0 180 102" style="enable-background:new 0 0 180 102;" xml:space="preserve">
<style type="text/css">
	.st0{fill:#AEAEAE;}
	.st1{fill:#03558C;}
	.st2{font-family:'VarelaRound-Regular';}
	.st3{font-size:33px;}
</style>
<g>
	<g>
		<path class="st0" d="M75.2,56.4c15.8,4.4,28.2,1.9,36-4.6c15-12.7-9-27.9-15.4-11C93.7,46.2,89.5,54.7,75.2,56.4L75.2,56.4z"/>
		<path class="st1" d="M78.9,5.3C65.5,14.8,59.8,26.1,60,36.2c0.5,19.6,27.4,10.5,18.3-5.1C75.3,26.1,71.3,17.5,78.9,5.3L78.9,5.3z"
			/>
		<path class="st1" d="M120,34.1c-2.8-16.2-10.4-26.3-19.6-30.5C82.5-4.5,79,23.7,97,22.2C102.8,21.7,112.3,21.9,120,34.1L120,34.1z
			"/>
	</g>
	<g>
		<text transform="matrix(1.1008 0 0 1 1.5854 92.0873)"><tspan x="0" y="0" class="st1 st2 st3">Factur</tspan><tspan x="98.6" y="0" class="st0 st2 st3">App</tspan></text>
	</g>
</g>
</svg>
